/vscmnt/brussel_pixiu_data/_data_brussel/112/vsc11236/PredSimResults/SUBJ10opt3D/trackIG/worker_06.mot
version=1
nRows=7
nColumns=50
inDegrees=yes
endheader
                time	         pelvis_tilt	         pelvis_list	     pelvis_rotation	           pelvis_tx	           pelvis_ty	           pelvis_tz	       hip_flexion_r	     hip_adduction_r	      hip_rotation_r	        knee_angle_r	       ankle_angle_r	         mtp_angle_r	       hip_flexion_l	     hip_adduction_l	      hip_rotation_l	        knee_angle_l	       ankle_angle_l	         mtp_angle_l	    lumbar_extension	      lumbar_bending	     lumbar_rotation	 ercspn_r/activation	 intobl_r/activation	 extobl_r/activation	    abd_r/activation	    add_r/activation	hamstrings_r/activation	bifemsh_r/activation	glut_max_r/activation	iliopsoas_r/activation	rect_fem_r/activation	  vasti_r/activation	gastroc_r/activation	 soleus_r/activation	tib_ant_r/activation	 ercspn_l/activation	 intobl_l/activation	 extobl_l/activation	    abd_l/activation	    add_l/activation	hamstrings_l/activation	bifemsh_l/activation	glut_max_l/activation	iliopsoas_l/activation	rect_fem_l/activation	  vasti_l/activation	gastroc_l/activation	 soleus_l/activation	tib_ant_l/activation	
          1.16782032	         -3.66254611	         -0.90193842	          7.43581084	          1.28460235	          0.82516725	         -0.01350332	         29.80191604	         -1.70825055	         -5.60839459	         -8.27165518	          2.68366177	          0.25804322	        -15.89548397	         -1.07083229	         -0.73733129	         -6.45909494	          8.73588188	         25.52378670	         -6.15104682	         -0.79241385	         -6.02593526	          0.10409553	          0.17209702	          0.00999999	          0.00999999	          0.15796099	          0.09748695	          0.19939240	          0.04478116	          0.09128867	          0.00999999	          0.00999999	          0.01704932	          0.01194636	          0.27723810	          0.09202996	          0.00999999	          0.00999999	          0.05077018	          0.00999999	          0.01053444	          0.18457070	          0.01194636	          0.30219117	          0.00999999	          0.00999999	          0.27740537	          0.24123503	          0.02118618	
          1.17949852	         -3.70316401	         -0.85734875	          7.49636165	          1.29977491	          0.82395510	         -0.01314634	         29.56824363	         -1.61426312	         -5.34939267	         -9.65339111	          2.35492569	          0.24904327	        -15.98191895	         -1.17793609	         -1.07831961	         -8.11005646	          8.04560789	         27.11528699	         -5.93827760	         -0.35692212	         -6.33036345	          0.08733087	          0.14405804	          0.00999999	          0.01612943	          0.13222513	          0.08500145	          0.16690630	          0.08083264	          0.07641543	          0.00999999	          0.00999999	          0.01427156	          0.00999999	          0.34449043	          0.10486773	          0.00999999	          0.00999999	          0.04249843	          0.00999999	          0.01000002	          0.15449943	          0.00999999	          0.25295654	          0.00999999	          0.00999999	          0.24193395	          0.22944466	          0.01773441	
          1.19117672	         -3.73534744	         -0.81437709	          7.50653640	          1.31511205	          0.82305220	         -0.01266191	         29.24509428	         -1.51894730	         -5.17079538	        -10.86270945	          1.90042197	          0.23938249	        -15.92791239	         -1.29458956	         -1.45025303	        -10.02471148	          7.20231367	         28.64776451	         -5.72174625	          0.08359994	         -6.60823397	          0.10948848	          0.12058732	          0.00999999	          0.06773400	          0.16828580	          0.07122769	          0.13971302	          0.09554661	          0.06396541	          0.00999999	          0.00999999	          0.01194636	          0.00999999	          0.39357957	          0.12761412	          0.00999999	          0.00999999	          0.03557435	          0.00999999	          0.01000000	          0.12932754	          0.00999999	          0.21174348	          0.00999999	          0.00999999	          0.20251675	          0.21445750	          0.01484503	
          1.20285493	         -3.75818232	         -0.76659757	          7.47033529	          1.33048435	          0.82255964	         -0.01206954	         28.90326337	         -1.42766750	         -5.08195160	        -12.05701521	          1.47662295	          0.22707283	        -15.68595963	         -1.41524658	         -1.85724068	        -12.26424983	          6.20229772	         30.02956047	         -5.51195345	          0.52110851	         -6.85391453	          0.10921748	          0.10094058	          0.00999999	          0.10024205	          0.20769816	          0.06377761	          0.11695021	          0.09669826	          0.05354382	          0.00999999	          0.01327113	          0.00999999	          0.00999999	          0.41941546	          0.15157185	          0.00999999	          0.00999999	          0.02977838	          0.00999999	          0.01000091	          0.10825680	          0.00999999	          0.17724508	          0.00999999	          0.00999999	          0.16952162	          0.19696035	          0.01242639	
          1.21453313	         -3.77150873	         -0.71967815	          7.39517863	          1.34578866	          0.82253852	         -0.01138179	         28.58223372	         -1.33491843	         -5.05352560	        -13.31626982	          1.20097752	          0.21419306	        -15.21589743	         -1.55057383	         -2.30059837	        -14.87666051	          5.06655287	         31.11766713	         -5.31449008	          0.95854644	         -7.06857798	          0.10633787	          0.08449479	          0.00999999	          0.12262815	          0.22801496	          0.06251972	          0.09789605	          0.09342293	          0.04482017	          0.00999999	          0.04008133	          0.00999999	          0.00999999	          0.42844673	          0.17011628	          0.00999999	          0.00999999	          0.02492673	          0.05429440	          0.02301939	          0.09061901	          0.00999999	          0.14836735	          0.00999999	          0.00999999	          0.14190224	          0.17209703	          0.01040182	
          1.22621133	         -3.77682849	         -0.67377395	          7.28524701	          1.36093317	          0.82305908	         -0.01061862	         28.25140422	         -1.23498528	         -5.04910031	        -14.57724228	          1.12636834	          0.20049120	        -14.47789941	         -1.70442228	         -2.80024722	        -17.90383029	          3.81476284	         31.72760169	         -5.13469472	          1.39392038	         -7.25297547	          0.10069164	          0.07072844	          0.00999999	          0.13364257	          0.24386823	          0.06353362	          0.08194629	          0.08835262	          0.03751782	          0.00999999	          0.06824111	          0.00999999	          0.00999999	          0.41667855	          0.18072085	          0.00999999	          0.00999999	          0.02086553	          0.11772960	          0.02990680	          0.07585487	          0.00999999	          0.12419453	          0.00999999	          0.00999999	          0.11878275	          0.14405804	          0.00999999	
          1.23788954	         -3.77596907	         -0.62311646	          7.14197135	          1.37585421	          0.82415208	         -0.00980392	         27.85334398	         -1.12563653	         -5.03833576	        -15.73548957	          1.28834094	          0.19223572	        -13.44160567	         -1.87934672	         -3.37508831	        -21.37790878	          2.46629206	         31.67155896	         -4.97672053	          1.82043564	         -7.40597630	          0.09542689	          0.05920497	          0.00999999	          0.13766927	          0.25199519	          0.06619689	          0.06859516	          0.08313957	          0.03140521	          0.00999999	          0.08587907	          0.00999999	          0.00999999	          0.38418818	          0.18366253	          0.00999999	          0.00999999	          0.01746600	          0.17446996	          0.03321582	          0.06349618	          0.00999999	          0.10396008	          0.00999999	          0.00999999	          0.09943002	          0.12058732	          0.00999999	
